<?xml version="1.0" encoding="iso-8859-1"?>
<!-- Generator: Adobe Illustrator 18.0.0, SVG Export Plug-In . SVG Version: 6.00 Build 0)  -->
<!DOCTYPE svg PUBLIC "-//W3C//DTD SVG 1.1//EN" "http://www.w3.org/Graphics/SVG/1.1/DTD/svg11.dtd">
<svg version="1.1" id="Capa_1" xmlns="http://www.w3.org/2000/svg" xmlns:xlink="http://www.w3.org/1999/xlink" x="0px" y="0px"
	 viewBox="0 0 301.596 301.596" style="enable-background:new 0 0 301.596 301.596;" xml:space="preserve">
<g>
	<path d="M42.594,15c0-8.284-6.716-15-15-15c-8.284,0-15,6.716-15,15v271.596c0,8.284,6.716,15,15,15c8.284,0,15-6.716,15-15
		V167.878c0.001,0.001,0.003,0.001,0.004,0.002L42.594,15z"/>
	<path d="M241.884,82.119c-2.612-3.511-2.582-8.23,0.073-11.421c14.179-16.938,28.766-30.829,42.537-41.913
		c12.138-9.769-3.688-16.893-7.238-18.387C205.001-20.024,132.811,43.637,60.598,24.255v150.269
		c72.321,19.395,144.643-44.541,216.963-13.724c3.53,1.495,6.753,1.127,8.306-1.213c1.553-2.331,1.167-6.335-0.995-10.258
		C270.543,123.431,256.213,101.49,241.884,82.119z"/>
</g>
<g>
</g>
<g>
</g>
<g>
</g>
<g>
</g>
<g>
</g>
<g>
</g>
<g>
</g>
<g>
</g>
<g>
</g>
<g>
</g>
<g>
</g>
<g>
</g>
<g>
</g>
<g>
</g>
<g>
</g>
</svg>
